HIERARCHY
ROOT Hips
{
	OFFSET 0.000000 0.000000 0.000000
	CHANNELS 6 Xposition Yposition Zposition Zrotation Yrotation Xrotation 
	JOINT LeftUpLeg_virtual
	{
		OFFSET 0.000000 0.000000 0.000000
		CHANNELS 3 Zrotation Yrotation Xrotation
		JOINT LeftUpLeg
		{
			OFFSET 8.479694 -4.795517 -0.379053
			CHANNELS 3 Zrotation Yrotation Xrotation
			JOINT LeftLeg
			{
				OFFSET 0.485052 -32.551468 0.112863
				CHANNELS 3 Zrotation Yrotation Xrotation
				JOINT LeftFoot
				{
					OFFSET 0.438033 -32.635670 -3.012641
					CHANNELS 3 Zrotation Yrotation Xrotation
					JOINT LeftToeBase
					{
						OFFSET 0.970169 -13.225353 11.864223
						CHANNELS 3 Zrotation Yrotation Xrotation
						End Site
						{
							OFFSET 0.000000 0.000000 0.000000
						}
					}
				}
			}
		}
	}
	JOINT RightUpLeg_virtual
	{
		OFFSET 0.000000 0.000000 0.000000
		CHANNELS 3 Zrotation Yrotation Xrotation
		JOINT RightUpLeg
		{
			OFFSET -8.479694 -4.795517 -0.379053
			CHANNELS 3 Zrotation Yrotation Xrotation
			JOINT RightLeg
			{
				OFFSET -0.484100 -32.551483 0.112903
				CHANNELS 3 Zrotation Yrotation Xrotation
				JOINT RightFoot
				{
					OFFSET -0.438985 -32.635651 -3.012681
					CHANNELS 3 Zrotation Yrotation Xrotation
					JOINT RightToeBase
					{
						OFFSET -0.970169 -13.225354 11.864223
						CHANNELS 3 Zrotation Yrotation Xrotation
						End Site
						{
							OFFSET 0.000000 0.000000 0.000000
						}
					}
				}
			}
		}
	}
	JOINT Spine_virtual
	{
		OFFSET 0.000000 0.000000 0.000000
		CHANNELS 3 Zrotation Yrotation Xrotation
		JOINT Spine
		{
			OFFSET 0.000000 7.722015 1.166203
			CHANNELS 3 Zrotation Yrotation Xrotation
			JOINT Spine1
			{
				OFFSET 0.000000 12.024086 0.248766
				CHANNELS 3 Zrotation Yrotation Xrotation
				JOINT Spine2
				{
					OFFSET -0.000000 11.503036 -0.491240
					CHANNELS 3 Zrotation Yrotation Xrotation
					JOINT Neck_virtual
					{
						OFFSET 0.000000 0.000000 0.000000
						CHANNELS 3 Zrotation Yrotation Xrotation
						JOINT Neck
						{
							OFFSET 0.000000 18.430687 -3.123054
							CHANNELS 3 Zrotation Yrotation Xrotation
							JOINT Head
							{
								OFFSET -0.000000 9.051071 1.034021
								CHANNELS 3 Zrotation Yrotation Xrotation
								End Site
								{
									OFFSET 0.000000 0.000000 0.000000
								}
							}
						}
					}
					JOINT LeftShoulder_virtual
					{
						OFFSET 0.000000 0.000000 0.000000
						CHANNELS 3 Zrotation Yrotation Xrotation
						JOINT LeftShoulder
						{
							OFFSET 6.197824 13.665230 -4.064723
							CHANNELS 3 Zrotation Yrotation Xrotation
							JOINT LeftArm
							{
								OFFSET 7.778132 -0.187073 -1.709282
								CHANNELS 3 Zrotation Yrotation Xrotation
								JOINT LeftForeArm
								{
									OFFSET 21.954697 0.000000 -2.041093
									CHANNELS 3 Zrotation Yrotation Xrotation
									JOINT LeftHand
									{
										OFFSET 22.992908 0.000000 -0.870901
										CHANNELS 3 Zrotation Yrotation Xrotation
										End Site
										{
											OFFSET 0.000000 0.000000 0.000000
										}
									}
								}
							}
						}
					}
					JOINT RightShoulder_virtual
					{
						OFFSET 0.000000 0.000000 0.000000
						CHANNELS 3 Zrotation Yrotation Xrotation
						JOINT RightShoulder
						{
							OFFSET -6.197824 13.665230 -4.064723
							CHANNELS 3 Zrotation Yrotation Xrotation
							JOINT RightArm
							{
								OFFSET -7.778132 -0.187073 -1.709282
								CHANNELS 3 Zrotation Yrotation Xrotation
								JOINT RightForeArm
								{
									OFFSET -21.954697 0.000000 -2.041093
									CHANNELS 3 Zrotation Yrotation Xrotation
									JOINT RightHand
									{
										OFFSET -22.992908 0.000000 -0.870901
										CHANNELS 3 Zrotation Yrotation Xrotation
										End Site
										{
											OFFSET 0.000000 0.000000 0.000000
										}
									}
								}
							}
						}
					}
				}
			}
		}
	}
}
MOTION
Frames: 11
Frame Time: 0.033333
48.183685 80.468384 110.119919 179.295690 22.430015 179.924955 -5.078152 2.096716 7.567389 10.609385 5.293778 -22.708719 7.744782 2.264408 28.615890 1.322912 -6.604053 -3.696549 0.000000 0.000000 0.000000 -0.964494 2.018652 6.355059 7.044528 8.674614 -20.321396 -1.181487 0.319671 29.113616 5.329744 8.074176 -12.482370 0.000000 0.000000 0.000000 -0.462425 4.108955 -6.402081 -1.196186 -8.665147 -4.117666 1.665160 -2.760655 5.886587 0.051543 0.470126 0.056602 -0.058936 -0.257497 16.686074 -0.745261 -8.564051 -12.243230 0.000000 0.000000 0.000000 2.769040 0.330409 14.403585 -19.831135 3.067834 -23.754904 -99.083731 4.968948 -121.216788 35.857523 -50.871297 32.125183 0.000000 0.000000 0.000000 -2.370568 1.969272 14.257082 38.909054 18.496793 16.801502 18.882318 5.681140 19.417823 -10.677905 6.534126 -3.190036 0.000000 0.000000 0.000000 
47.800621 80.511421 109.925529 178.932310 23.098061 179.855027 -4.869969 2.017867 7.756277 10.877377 4.929303 -22.228960 8.031557 1.892289 28.119271 1.471592 -6.256533 -3.371610 0.000000 0.000000 0.000000 -0.769282 1.799310 6.499437 7.229235 8.317781 -20.208426 -1.034998 -0.129681 28.519410 5.474947 8.207933 -12.179718 0.000000 0.000000 0.000000 -0.673213 4.182711 -6.767922 -1.135419 -8.591995 -4.343126 1.726561 -2.785003 5.835993 0.037323 0.562738 0.154770 -0.150906 -0.494131 16.611208 -0.970500 -8.426743 -12.193737 0.000000 0.000000 0.000000 2.790142 0.489170 14.354495 -19.843971 2.947149 -23.746259 -98.834784 4.897608 -121.194194 36.122234 -50.831593 31.378203 0.000000 0.000000 0.000000 -2.418272 2.057291 14.234457 38.647649 18.660256 16.740319 18.554151 6.031565 18.570019 -10.712513 6.991421 -2.944615 0.000000 0.000000 0.000000 
47.265526 80.559830 109.619270 178.947268 23.472133 179.800686 -5.041682 2.047787 7.640412 10.553515 5.031776 -21.969934 8.132902 1.938607 28.363880 1.465815 -6.031268 -3.862306 0.000000 0.000000 0.000000 -1.011462 1.940791 6.413273 7.058439 8.291580 -19.980576 -1.088680 -0.126124 28.447185 5.653885 8.256847 -12.058947 0.000000 0.000000 0.000000 -0.687531 4.155732 -7.044679 -0.935751 -8.542975 -4.516677 1.712495 -2.825120 5.825906 0.035061 0.536912 0.120167 0.006757 -0.374766 16.587323 -1.179348 -8.338185 -12.074309 0.000000 0.000000 0.000000 2.926251 0.618137 14.324655 -20.038966 3.033794 -23.853370 -98.423279 5.018882 -120.725424 36.329025 -49.844979 30.381457 0.000000 0.000000 0.000000 -2.148985 2.155965 14.107408 38.250009 18.419258 16.354130 18.256805 6.126781 17.801717 -10.716300 7.433346 -2.491138 0.000000 0.000000 0.000000 
46.629879 80.577133 109.287895 178.990722 23.707464 179.800441 -5.211001 2.242776 7.421059 10.162907 5.064101 -21.892138 8.294244 1.955268 28.842250 1.377624 -5.854850 -4.429717 0.000000 0.000000 0.000000 -1.335129 2.122596 6.221523 6.944758 8.289541 -19.677189 -1.173462 -0.173603 28.406429 5.821682 8.237033 -12.135206 0.000000 0.000000 0.000000 -0.870140 4.236291 -7.337673 -0.608172 -8.453326 -4.727299 1.895826 -2.846330 5.841766 0.022110 0.482543 0.016433 0.103285 -0.277344 16.560975 -1.561435 -8.390927 -11.647878 0.000000 0.000000 0.000000 3.025120 0.588331 14.235345 -20.303494 2.887364 -23.887024 -97.882266 5.241759 -120.185457 36.716508 -47.695348 29.452469 0.000000 0.000000 0.000000 -2.201631 2.148046 13.812753 37.751774 17.860922 15.776921 18.435808 6.040631 17.030298 -10.552424 7.488326 -2.773254 0.000000 0.000000 0.000000 
45.967388 80.564400 108.989563 179.061045 23.831657 179.858716 -5.381107 2.498403 7.153176 9.784368 5.003136 -21.969350 8.476721 1.961040 29.474954 1.226144 -5.716187 -5.060441 0.000000 0.000000 0.000000 -1.679874 2.315086 5.975725 6.853813 8.361502 -19.403524 -1.270917 -0.229722 28.422097 5.984056 8.173875 -12.350217 0.000000 0.000000 0.000000 -1.052417 4.233858 -7.606390 -0.218863 -8.462728 -4.982371 2.086369 -2.894675 5.885961 -0.030742 0.406544 0.108155 0.068460 -0.526944 16.366909 -1.931699 -8.417079 -11.168853 0.000000 0.000000 0.000000 3.061830 0.520169 13.993835 -20.522347 2.764854 -23.733121 -97.244798 5.650373 -119.480089 36.874894 -44.377061 28.693089 0.000000 0.000000 0.000000 -2.162548 2.097939 13.526412 37.135943 17.117142 15.014057 18.742205 6.056096 16.602814 -10.302426 6.903123 -2.554320 0.000000 0.000000 0.000000 
45.297867 80.558594 108.737923 179.151764 24.103142 179.943287 -5.579861 2.743713 6.871321 9.466836 4.892766 -21.994792 8.626845 2.060754 30.006906 1.052318 -5.593723 -5.682686 0.000000 0.000000 0.000000 -2.006382 2.557327 5.679345 6.743004 8.545902 -19.166569 -1.358584 -0.217400 28.495510 6.163581 8.108451 -12.632180 0.000000 0.000000 0.000000 -1.056404 4.246921 -7.810741 0.073497 -8.248255 -5.310415 1.947767 -2.650023 5.896246 0.038491 0.552944 0.112224 0.392838 -0.230262 16.293826 -2.306547 -8.430596 -10.735001 0.000000 0.000000 0.000000 3.113131 0.414744 14.094232 -20.524409 2.369766 -23.758885 -96.474551 6.612978 -118.614158 36.936372 -40.789401 28.054599 0.000000 0.000000 0.000000 -1.913720 1.992846 13.228857 36.585574 16.059708 14.259685 19.518717 5.655720 16.956471 -10.135942 5.914519 -2.250937 0.000000 0.000000 0.000000 
44.619694 80.545891 108.508804 179.209766 24.068569 179.865163 -5.832381 2.878000 6.706920 9.157225 4.736019 -22.022809 8.743195 2.165875 30.516626 0.904171 -5.480487 -6.294180 0.000000 0.000000 0.000000 -2.299050 2.698618 5.539624 6.561627 8.759741 -18.991717 -1.434155 -0.198066 28.645547 6.327431 8.024956 -12.968819 0.000000 0.000000 0.000000 -1.271129 4.465292 -7.897440 0.483370 -8.336411 -5.598107 1.999342 -2.782841 6.032660 0.033526 0.463439 0.019097 0.270291 -0.216412 16.187200 -2.865593 -8.353687 -10.358527 0.000000 0.000000 0.000000 3.115952 0.615368 14.052818 -20.367638 2.124055 -23.466199 -95.473060 7.897037 -117.702574 37.185671 -37.400381 27.419975 0.000000 0.000000 0.000000 -2.061658 2.061964 13.144504 36.066913 15.105443 13.643036 20.653705 5.543026 17.075695 -9.978976 4.730916 -2.100600 0.000000 0.000000 0.000000 
43.982628 80.533028 108.307274 179.288149 23.877037 179.926143 -6.074620 3.009382 6.614946 8.860901 4.493997 -22.329984 8.880355 2.262547 31.028436 0.843203 -5.345981 -6.762502 0.000000 0.000000 0.000000 -2.499036 2.862483 5.489191 6.295678 8.931088 -19.119002 -1.483295 -0.163686 28.863160 6.521194 7.951151 -13.087144 0.000000 0.000000 0.000000 -1.394400 4.431065 -7.985384 0.832833 -8.330672 -5.977001 1.863502 -2.776913 6.182108 0.063947 0.448345 0.038961 0.246233 -0.375562 16.132678 -3.274082 -8.483366 -10.032211 0.000000 0.000000 0.000000 3.073585 0.537180 14.003808 -19.928371 2.158221 -23.320583 -94.469419 9.687326 -116.665437 37.638413 -34.086472 26.532635 0.000000 0.000000 0.000000 -2.017251 2.145820 13.129780 35.487962 14.145098 12.988753 22.046638 5.391113 17.281236 -9.811019 3.632502 -2.040845 0.000000 0.000000 0.000000 
43.339943 80.525475 108.116356 179.355249 23.505585 179.947071 -6.272340 2.993926 6.644040 8.506558 4.261710 -22.708830 8.993741 2.360237 31.541380 0.897940 -5.230026 -7.200965 0.000000 0.000000 0.000000 -2.598092 2.943193 5.569032 5.920168 8.998232 -19.402378 -1.507930 -0.085935 29.166192 6.728174 7.902800 -13.105262 0.000000 0.000000 0.000000 -1.552903 4.424567 -7.960749 1.217475 -8.397228 -6.424070 1.786854 -2.861463 6.361340 0.061477 0.419641 0.020233 0.140446 -0.303978 16.243035 -3.637031 -8.263500 -9.618265 0.000000 0.000000 0.000000 2.932987 0.559298 14.090817 -19.267612 2.253167 -23.024026 -93.352232 11.466647 -115.953144 38.199739 -31.113844 25.542440 0.000000 0.000000 0.000000 -2.138501 2.198917 13.300427 35.022519 13.368761 12.594589 23.682624 5.292088 17.099013 -9.720877 2.563132 -2.137300 0.000000 0.000000 0.000000 
42.646587 80.512466 107.905899 179.484380 22.731575 -179.853661 -6.370703 2.850575 6.639260 8.050367 4.079943 -23.308908 9.077299 2.384748 32.174552 1.051661 -5.175146 -7.626212 0.000000 0.000000 0.000000 -2.572421 2.869887 5.673859 5.407594 8.958264 -19.970015 -1.526970 0.031803 29.573346 6.916706 7.854488 -13.057624 0.000000 0.000000 0.000000 -1.617820 4.305970 -8.107155 1.529240 -8.405945 -6.828058 1.676511 -2.951507 6.679973 0.043907 0.326118 0.067156 0.011827 -0.258091 16.337661 -3.952971 -8.316520 -9.385938 0.000000 0.000000 0.000000 2.805937 0.579055 14.321170 -18.351865 2.280278 -22.753720 -92.392392 13.102932 -115.570735 39.100036 -28.243486 24.429860 0.000000 0.000000 0.000000 -2.334176 2.040270 13.529550 34.563762 12.685405 12.383019 25.315826 5.390598 16.665525 -9.674013 1.366982 -2.314463 0.000000 0.000000 0.000000 
41.875053 80.519386 107.659653 179.603294 21.875393 -179.833553 -6.363338 2.655691 6.747777 7.462069 4.337386 -23.772163 9.118892 2.378648 32.615120 1.259223 -5.214949 -7.993589 0.000000 0.000000 0.000000 -2.422743 2.759076 5.793451 4.742365 8.913457 -20.428005 -1.551419 0.278609 30.302739 7.035761 7.800243 -13.117035 0.000000 0.000000 0.000000 -1.504640 4.180539 -8.088757 1.714319 -8.397399 -7.174091 1.515589 -3.017167 6.935928 0.018333 0.298748 0.138330 -0.070956 -0.337746 16.579188 -4.171897 -8.301744 -8.969256 0.000000 0.000000 0.000000 2.616483 0.302702 14.512765 -17.595503 2.593591 -22.444896 -91.681779 14.421226 -115.055821 40.119066 -25.683140 23.032276 0.000000 0.000000 0.000000 -2.380975 1.984976 13.785910 34.214152 12.265325 12.231496 26.855501 5.259536 16.377960 -9.624827 0.051118 -2.534880 0.000000 0.000000 0.000000 
